<svg xmlns="http://www.w3.org/2000/svg" viewBox="0 0 100 100" fill="none">
  <!-- Main circle -->
  <circle cx="50" cy="50" r="45" fill="#4F46E5" />
  
  <!-- Letter S stylized as an infinity symbol -->
  <path d="M65 35C65 30 60 25 55 25C50 25 45 30 45 35C45 45 65 40 65 50C65 55 60 60 55 60C50 60 45 55 45 50" stroke="white" stroke-width="8" stroke-linecap="round"/>
  
  <!-- Completing the S shape -->
  <path d="M35 65C35 70 40 75 45 75C50 75 55 70 55 65C55 55 35 60 35 50C35 45 40 40 45 40C50 40 55 45 55 50" stroke="white" stroke-width="8" stroke-linecap="round"/>
</svg>