<svg width="92" height="92" viewBox="0 0 92 92" fill="none" xmlns="http://www.w3.org/2000/svg">
<g clip-path="url(#clip0_655_2157)">
<rect x="-0.00012207" y="1.52588e-05" width="91.125" height="91.125" rx="6.75" fill="white"/>
<path d="M21.7584 50.6511C21.7584 49.808 21.7676 47.5543 21.7468 47.2766C21.7649 43.9231 19.3266 41.5575 17.7863 41.7419C16.7204 41.8344 15.8271 42.269 15.3474 43.5194C14.9029 44.6846 15.3003 46.2346 16.7783 46.5982C18.3588 46.9888 19.2816 47.3138 19.9495 47.7723C20.7679 48.3336 21.4359 49.4059 21.4537 50.6524" fill="#0060AF"/>
<path d="M22.3893 55.7484C19.6026 55.7484 16.7386 55.062 13.8785 53.7045L13.8083 53.67L13.7748 53.5985C12.4913 50.8892 11.8125 47.9259 11.8125 45.0267C11.8125 42.1318 12.4634 39.2953 13.7479 36.5897L13.7831 36.5178L13.8547 36.4819C16.5004 35.2286 19.3466 34.5937 22.3168 34.5937C25.0837 34.5937 28.0386 35.3005 30.8608 36.6412L30.9333 36.6734L30.9666 36.7467C32.2747 39.5059 32.9645 42.4684 32.9645 45.3196C32.9645 48.1597 32.3022 50.9987 30.9926 53.7562L30.958 53.8287L30.8852 53.8622C28.2799 55.0956 25.3417 55.7484 22.3893 55.7484ZM14.1432 53.333C16.9217 54.64 19.6928 55.3 22.3893 55.3C25.2485 55.3 28.092 54.6751 30.6231 53.4904C31.8805 50.8183 32.5179 48.0682 32.5179 45.3196C32.5179 42.56 31.8527 39.6894 30.5944 37.0114C27.8555 35.7239 24.9952 35.0411 22.3168 35.0411C19.4412 35.0411 16.685 35.651 14.1192 36.8542C12.8876 39.4767 12.2607 42.2247 12.2607 45.0267C12.2607 47.834 12.9122 50.7057 14.1432 53.333Z" fill="#0060AF"/>
<path d="M21.0979 50.6527C21.1031 49.5719 20.4999 48.6162 19.7114 48.1026C19.0121 47.6487 18.0732 47.3504 16.5586 46.9664C16.0904 46.8466 15.6006 46.5805 15.449 46.2415C15.0479 46.6456 14.9751 47.5541 15.0456 48.0851C15.1276 48.6996 15.8457 49.7122 16.9268 49.7519C17.5871 49.7784 18.4218 49.6098 18.8221 49.5248C19.5127 49.3756 20.6053 49.8082 20.7793 50.6513" fill="#0060AF"/>
<path d="M22.3168 36.5152C20.4837 36.5152 18.9002 37.7241 18.9059 39.816C18.9116 41.5752 20.3263 42.5169 20.8312 43.1896C21.594 44.2032 22.0069 45.403 22.0498 47.2388C22.0832 48.6998 22.0815 50.1426 22.0889 50.6539H22.4936C22.4866 50.1189 22.4682 48.5873 22.4892 47.1936C22.5167 45.3572 22.9444 44.2032 23.7077 43.1896C24.2169 42.5169 25.6304 41.5752 25.6335 39.816C25.6404 37.7241 24.0578 36.5152 22.2262 36.5152" fill="#0060AF"/>
<path d="M22.7823 50.6511C22.7823 49.808 22.7727 47.5543 22.7931 47.2766C22.7752 43.9231 25.2119 41.5575 26.7537 41.7419C27.8196 41.8344 28.7119 42.269 29.1929 43.5194C29.6371 44.6846 29.2373 46.2346 27.761 46.5982C26.1798 46.9888 25.2581 47.3138 24.5885 47.7723C23.7711 48.3336 23.1498 49.4059 23.1307 50.6524" fill="#0060AF"/>
<path d="M23.4421 50.6527C23.4364 49.5719 24.0394 48.6162 24.8256 48.1026C25.5278 47.6487 26.4678 47.3504 27.9811 46.9664C28.4503 46.8466 28.9394 46.5805 29.0884 46.2415C29.4914 46.6456 29.564 47.5541 29.4935 48.0851C29.4097 48.6996 28.6936 49.7122 27.6144 49.7519C26.9543 49.7784 26.1152 49.6098 25.7166 49.5248C25.0287 49.3756 23.933 49.8082 23.7583 50.6513" fill="#0060AF"/>
<path d="M24.0077 54.1415L23.7731 52.4299L24.3394 52.3441C24.4772 52.3252 24.6451 52.3492 24.7122 52.4356C24.7864 52.5258 24.8091 52.6004 24.8234 52.7186C24.8448 52.8649 24.8024 53.0341 24.6376 53.1184V53.1235C24.8217 53.1235 24.9329 53.2557 24.9651 53.4788C24.9699 53.5259 24.9838 53.6398 24.9699 53.7347C24.9325 53.9607 24.7976 54.0334 24.5701 54.0653L24.0077 54.1415ZM24.3722 53.8351C24.4393 53.8255 24.5074 53.8219 24.5606 53.788C24.642 53.7348 24.6346 53.6209 24.6233 53.5364C24.5949 53.3507 24.5465 53.2801 24.3495 53.3093L24.2257 53.3284L24.3041 53.8446L24.3722 53.8351ZM24.2535 53.0442C24.3285 53.032 24.4301 53.023 24.4725 52.9519C24.4946 52.9044 24.523 52.8666 24.5043 52.761C24.4813 52.6357 24.4397 52.5581 24.2806 52.5882L24.1324 52.612L24.1908 53.0507" fill="#0060AF"/>
<path d="M26.4604 53.1121C26.4648 53.1439 26.47 53.1794 26.4719 53.2112C26.5177 53.5234 26.4604 53.7819 26.1095 53.853C25.5908 53.9529 25.4914 53.6306 25.4001 53.1794L25.3514 52.9353C25.2799 52.5035 25.2492 52.1766 25.755 52.0759C26.0401 52.0239 26.2285 52.1373 26.3069 52.4211C26.3191 52.4634 26.3344 52.5054 26.3401 52.5479L26.0298 52.612C25.994 52.5054 25.9465 52.3149 25.8069 52.3309C25.5563 52.361 25.639 52.6729 25.6648 52.8031L25.758 53.2717C25.7861 53.4134 25.8418 53.6398 26.0586 53.5961C26.2346 53.5608 26.158 53.2866 26.1423 53.1743" fill="#0060AF"/>
<path d="M26.9584 53.6301L26.8511 51.8588L27.268 51.7316L28.142 53.2722L27.8138 53.3704L27.6067 52.9789L27.2422 53.0883L27.2893 53.5335L26.9584 53.6301ZM27.2117 52.8023L27.4751 52.726L27.1253 52.0093" fill="#0060AF"/>
<path d="M16.6613 52.2904C16.7917 51.8727 16.9086 51.5653 17.4064 51.7018C17.6728 51.7762 17.838 51.8937 17.8302 52.2032C17.8289 52.272 17.8061 52.3422 17.7913 52.4103L17.4813 52.3247C17.522 52.1538 17.5477 52.0182 17.3372 51.9534C17.0938 51.8866 17.0345 52.1816 17.0009 52.309L16.8749 52.7734C16.8348 52.9113 16.7868 53.1392 17.0009 53.198C17.1779 53.2456 17.2853 53.0719 17.3494 52.8182L17.1325 52.7608L17.2075 52.4921L17.7173 52.6561L17.4752 53.5512L17.2407 53.4875L17.2935 53.2983H17.2868C17.1789 53.4529 17.0471 53.4692 16.9317 53.447C16.4219 53.3091 16.4751 52.976 16.5968 52.5308" fill="#0060AF"/>
<path d="M18.5588 53.047L18.4053 53.7752L18.0597 53.7004L18.428 52.0002L19.0171 52.1333C19.3619 52.2077 19.466 52.3612 19.4172 52.6773C19.3893 52.8586 19.2999 53.0541 19.0815 53.0383L19.0792 53.0353C19.2639 53.1 19.2795 53.193 19.2473 53.354C19.2333 53.4224 19.1374 53.838 19.2036 53.9051L19.2059 53.9561L18.8483 53.8628C18.8334 53.7476 18.884 53.5405 18.904 53.4259C18.9242 53.3244 18.9564 53.1814 18.8534 53.1276C18.7728 53.0847 18.7428 53.0868 18.6517 53.0658L18.5588 53.047ZM18.6177 52.7837L18.8504 52.8464C18.9917 52.8668 19.0703 52.7936 19.0981 52.6229C19.1233 52.4663 19.0907 52.4051 18.9639 52.3748L18.7144 52.3242" fill="#0060AF"/>
<path d="M20.7752 52.3797L21.117 52.4194L20.9698 53.6146C20.8982 53.9935 20.7518 54.1592 20.3349 54.1074C19.9107 54.0538 19.81 53.8606 19.8358 53.4786L19.984 52.2843L20.3284 52.3238L20.1806 53.4914C20.1649 53.6182 20.1356 53.806 20.3612 53.8287C20.5613 53.844 20.6066 53.7114 20.6291 53.5467" fill="#0060AF"/>
<path d="M21.4938 54.1725L21.5966 52.4633L22.2532 52.4917C22.5635 52.507 22.6447 52.7604 22.635 53.0022C22.626 53.1493 22.5801 53.3135 22.4519 53.4026C22.3468 53.4783 22.2118 53.4962 22.0865 53.4901L21.8725 53.4782L21.8298 54.1945L21.4938 54.1725ZM21.8823 53.2176L22.0562 53.2273C22.1975 53.2324 22.2911 53.1766 22.3034 52.9691C22.3102 52.7698 22.2349 52.736 22.0518 52.728L21.9139 52.7233" fill="#0060AF"/>
<path d="M67.8052 38.1668L65.1955 42.9036C64.2105 42.1037 63.0076 41.515 61.473 41.515C57.8412 41.515 56.366 44.2222 56.366 46.1291C56.366 47.5446 57.2929 49.6331 60.5244 49.6331C61.8807 49.6331 63.809 48.6894 64.364 48.2601L61.7829 53.7555C60.5526 54.001 60.1485 54.1532 59.107 54.1854C53.3232 54.358 50.986 50.805 50.9877 47.1744C50.9916 42.3749 55.2588 36.5379 62.3327 36.5379C62.7662 36.5379 63.2964 36.6878 63.7497 36.8539L64.2078 36.2681" fill="#0060AF"/>
<path d="M78.5735 36.4172L79.3125 53.6333H73.8127L73.8095 50.6807H70.0593L68.825 53.6333H62.8604L69.0962 41.3395L67.69 41.3304L70.3617 36.4172H78.5735ZM73.7738 41.684L71.6535 46.6915H73.8377" fill="#0060AF"/>
<path d="M47.5157 36.4174C50.2393 36.4327 51.7783 37.9111 51.7783 40.0467C51.7783 42.0154 50.1552 43.7582 48.3733 44.6593C50.2078 45.3336 50.3665 46.989 50.3665 48.1602C50.3665 50.9896 47.5273 53.6335 43.8368 53.6335H35.7883L38.9279 41.511L37.6383 41.5035L40.2745 36.4174C40.2745 36.4174 45.3009 36.4021 47.5157 36.4174ZM44.8436 43.3975C45.407 43.3975 46.4017 43.2549 46.6504 42.1645C46.923 40.981 45.9894 40.9491 45.5416 40.9491L43.9415 40.9421L43.3835 43.3976L44.8436 43.3975ZM42.5814 46.4398L41.8446 49.2692H43.7287C44.47 49.2692 45.4802 48.9013 45.7277 47.9806C45.9722 47.0571 45.266 46.4398 44.5274 46.4398" fill="#0060AF"/>
</g>
<defs>
<clipPath id="clip0_655_2157">
<rect width="91.125" height="91.125" rx="6.75" fill="white"/>
</clipPath>
</defs>
</svg>
