<svg width="108" height="108" viewBox="0 0 108 108" fill="none" xmlns="http://www.w3.org/2000/svg">
<rect x="-0.00012207" width="108" height="108" rx="8" fill="white"/>
<path d="M14.0091 53.6526C14.0091 47.9338 14.0091 42.2153 14.0091 36.4973C14.011 35.989 13.9132 36.0033 14.5226 36.0033C17.3719 36.0033 20.2211 36.0033 23.0704 36.0033C23.5192 36 23.5192 35.9961 23.5192 36.4352C23.5192 40.9345 23.5192 45.4337 23.5192 49.933C23.5192 50.148 23.4985 50.3649 23.5554 50.5767C23.659 50.9613 23.8792 51.0624 24.236 50.881C24.5928 50.6997 24.8389 50.3954 25.1277 50.1383C26.9264 48.527 29.0934 47.3822 31.4382 46.8046C34.1463 46.126 36.8285 46.2043 39.4551 47.1686C41.9275 48.0751 43.8183 49.6941 45.1063 52.0013C46.507 54.5126 46.8464 57.2272 46.6521 60.0428C46.5226 61.957 46.0583 63.7831 45.1588 65.4869C43.6895 68.2714 41.4269 70.0735 38.3976 70.9031C36.4666 71.4321 34.5031 71.4438 32.5274 71.1867C30.7732 70.9588 29.1238 70.4388 27.5995 69.5328C26.2642 68.7389 25.1588 67.6957 24.2321 66.4563C23.9414 66.0677 23.6493 65.6792 23.2763 65.3632C22.6858 64.8665 22.2066 64.9053 21.7222 65.5063C21.2611 66.0781 20.9088 66.725 20.5099 67.3389C19.2796 69.2285 17.6607 70.5806 15.4233 71.1064C15.0801 71.1874 14.7304 71.2424 14.3827 71.3007C14.1295 71.3441 13.9903 71.2845 14 70.9685C14.0239 70.2464 14.0091 69.5231 14.0091 68.8004C14.0095 63.7512 14.0095 58.7019 14.0091 53.6526ZM31.3974 63.7248C32.9114 63.7203 34.068 63.4535 35.2601 62.8325C37.5156 61.6572 38.3814 58.8338 37.1789 56.5848C36.6854 55.6627 35.8889 55.0844 34.9584 54.6978C32.6213 53.7264 30.2564 53.7497 27.8999 54.633C27.0879 54.9374 26.3529 55.3952 25.8141 56.1062C25.1193 57.0238 24.9322 58.0813 25.0125 59.1951C25.1225 60.7324 25.8277 61.9065 27.1818 62.6861C28.4931 63.4386 29.9061 63.73 31.3974 63.7248Z" fill="#33CDCF"/>
<path d="M93.9981 59.0139V70.8591C93.9981 71.339 93.9981 71.3435 93.5098 71.2768C91.1423 70.953 89.2495 69.8308 87.8689 67.8745C87.4221 67.2412 87.0141 66.5794 86.5854 65.9318C86.4067 65.6624 86.2254 65.3969 85.9573 65.2001C85.651 64.9754 85.3466 64.9676 85.0235 65.156C84.4757 65.4759 84.1227 65.9843 83.7556 66.4751C82.3484 68.353 80.5572 69.7084 78.338 70.501C75.9725 71.3461 73.5344 71.4575 71.0646 71.2723C70.0101 71.2017 68.9698 70.9907 67.9712 70.6448C66.3976 70.0866 65.3201 68.9993 64.6039 67.5177C63.8307 65.9111 63.525 64.1892 63.321 62.4376C63.0691 60.2786 63.0724 58.1118 63.0737 55.9438C63.0737 52.9879 63.0704 50.032 63.064 47.076C63.064 46.7523 63.1546 46.6545 63.4829 46.6558C66.397 46.6668 69.311 46.6603 72.225 46.6597C72.5793 46.6597 72.5903 46.6752 72.5896 47.1576C72.5896 48.8728 72.5883 50.588 72.5857 52.3032C72.5857 54.0406 72.5696 55.7774 72.6 57.5135C72.6207 58.6895 72.7295 59.8609 73.0533 61.0013C73.4418 62.3734 74.1541 63.4931 75.6079 63.8836C78.8308 64.75 81.3136 63.936 83.0769 60.884C84.0191 59.2541 84.4595 57.4675 84.4821 55.5954C84.5145 52.8879 84.4938 50.1798 84.4931 47.4717C84.4931 46.6784 84.4886 46.6771 85.2903 46.6771C88.0308 46.6771 90.7721 46.6771 93.5143 46.6771C94.0046 46.6771 94.0058 46.6771 94.0058 47.1693V59.0139H93.9981Z" fill="#33CDCF"/>
<path d="M59.3864 53.6927C59.3864 59.4211 59.3864 65.1494 59.3864 70.8778C59.3864 71.3136 59.3864 71.3136 58.9506 71.3142C56.0592 71.3142 53.1672 71.309 50.2732 71.3214C49.9494 71.3214 49.8581 71.2443 49.8588 70.9114C49.8696 59.4228 49.873 47.9335 49.8691 36.4436C49.8691 36.0175 49.8691 36.0168 50.2881 36.0168H58.9655C59.389 36.0168 59.3897 36.0168 59.3897 36.4416L59.3864 53.6927Z" fill="#33CDCF"/>
</svg>
