<svg width="108" height="108" viewBox="0 0 108 108" fill="none" xmlns="http://www.w3.org/2000/svg">
<rect width="108" height="108" rx="8" fill="white"/>
<path d="M39.636 39H18.6167C16.0681 39 14 41.118 14 43.7341V64.5446C14 67.1366 16.0272 69.2414 18.5476 69.2787L39.621 69.2793C42.1697 69.2793 44.2426 67.1607 44.2426 64.5446L44.2528 43.7341C44.2528 41.118 42.1841 39 39.636 39ZM21.1149 66.8533L19.9678 66.8672C18.5789 66.8672 17.4576 65.7236 17.4576 64.3185L17.4492 64.1158V44.898L17.4576 43.8622C17.5135 42.5028 18.5452 41.4044 19.8986 41.4044H22.2283C24.3439 41.4044 26.0547 43.242 26.0547 45.4063C26.0547 46.4813 25.6336 47.4515 24.9527 48.1608L19.0077 54.1905L24.5821 59.8689C25.298 60.6112 25.7311 61.5851 25.7311 62.6492C25.7311 64.9705 23.6684 66.8533 21.1149 66.8533ZM38.2525 66.8359L27.8587 66.8329C27.8587 66.8329 29.0605 64.2331 29.0605 62.6264C29.0605 60.6672 28.4055 58.9137 27.3799 57.7564L23.8266 54.1315L27.4502 50.3864C28.5348 49.3674 29.2506 47.5646 29.2506 45.514C29.2506 43.8893 28.8019 42.4498 28.0752 41.4044H30.595C32.7088 41.4044 34.4214 43.242 34.4214 45.4063C34.4214 46.4813 34.0021 47.4515 33.323 48.1608L27.4881 54.1291L39.603 66.484C39.2168 66.7258 38.7343 66.8359 38.2525 66.8359ZM40.788 62.9771L32.1049 54.1273L36.2398 49.9262C37.0825 48.8706 37.6191 47.2855 37.6191 45.514C37.6191 43.8797 37.1619 42.4023 36.4323 41.3574L38.2808 41.4152C39.6673 41.4152 40.7952 42.5551 40.7952 43.9645L40.788 62.9771Z" fill="#00529C"/>
<path d="M62.8834 52.7179C63.0525 52.5489 63.2522 52.3311 63.4826 52.0647C63.7123 51.7982 63.9301 51.4836 64.1358 51.1203C64.3415 50.7569 64.5172 50.3521 64.6622 49.904C64.8077 49.4564 64.8805 48.9782 64.8805 48.4699C64.8805 47.478 64.7109 46.5522 64.3722 45.6926C64.033 44.8337 63.5126 44.083 62.8107 43.4411C62.1087 42.8005 61.2316 42.2976 60.1784 41.9343C59.1257 41.5716 57.8967 41.3899 56.4934 41.3899H56.4549H52.4198H51.3695H47.2346V46.0181V62.0405V66.8052H57.4011C58.8772 66.8052 60.1657 66.6055 61.2677 66.2061C62.3685 65.8066 63.2829 65.2562 64.0089 64.5542C64.7349 63.8523 65.2733 63.0354 65.6246 62.1036C65.9753 61.1718 66.151 60.1733 66.151 59.108C66.151 57.68 65.8243 56.4095 65.1711 55.2955C64.5172 54.1827 63.7545 53.3231 62.8834 52.7179ZM58.3882 46.0469C58.7305 46.1775 59.0162 46.3471 59.2394 46.5607C59.8174 47.1153 60.1068 47.7782 60.1068 48.5493C60.1068 49.2489 59.9859 49.827 59.7453 50.2847C59.504 50.7431 59.2628 51.0926 59.0222 51.3332H51.9548V45.7468H56.3478C57.1713 45.7468 57.8492 45.8484 58.3882 46.0469ZM57.6549 55.7316C58.9344 55.7316 59.8824 56.063 60.4996 56.7247C61.08 57.3762 61.3724 58.1449 61.3724 59.0346C61.3724 59.9513 61.0409 60.7339 60.3781 61.3848C59.7146 62.0356 58.6246 62.3617 57.1057 62.3617H56.5385H51.9548V55.7316H57.6549Z" fill="#00529C"/>
<path d="M83.3872 55.8585C84.1493 55.3382 84.7851 54.7331 85.2934 54.0431C85.8017 53.3531 86.1765 52.591 86.4189 51.7561C86.6607 50.9206 86.7822 50.0676 86.7822 49.196C86.7822 48.0585 86.594 47.0118 86.2192 46.0554C85.8432 45.0995 85.2808 44.2766 84.5307 43.5867C83.78 42.8967 82.8422 42.3584 81.7167 41.971C80.5913 41.5842 79.2902 41.3899 77.814 41.3899H77.6811H67.902H67.8105V66.8052H72.6222V57.3654H75.305L81.9405 66.8052H87.5805L80.7188 57.0387C81.7348 56.7728 82.6244 56.3794 83.3872 55.8585ZM77.8501 45.7468C78.1527 45.7468 78.4384 45.7666 78.7103 45.8009C79.5681 45.9303 80.2689 46.2364 80.809 46.7231C81.5441 47.3866 81.9116 48.1998 81.9116 49.1635C81.9116 49.6465 81.8328 50.1163 81.6764 50.5741C81.5194 51.0324 81.2728 51.4361 80.9353 51.785C80.5973 52.135 80.1636 52.4178 79.6336 52.6349C79.1031 52.8521 78.4643 52.9603 77.7172 52.9603H72.6222V45.7468H77.8501Z" fill="#00529C"/>
<path d="M89.2799 41.3899V41.3971C89.2311 41.3959 89.1836 41.3899 89.1349 41.3899H89.094V41.3917V50.7076V57.3828V66.8052H94.0001V41.3899H89.2799Z" fill="#00529C"/>
</svg>
