<svg width="108" height="108" viewBox="0 0 108 108" fill="none" xmlns="http://www.w3.org/2000/svg">
<rect width="108" height="108" rx="8" fill="white"/>
<path fill-rule="evenodd" clip-rule="evenodd" d="M28.5164 61.2379C28.5561 61.4193 28.8793 61.6517 29.055 61.9579C28.8849 61.8502 28.7205 61.6914 28.5561 61.5497C27.8191 60.9374 22.3596 56.3339 21.9627 56.0902C20.2052 54.996 19.2698 56.0448 18.1473 56.9462C17.6257 57.3601 12.2399 61.9069 12.1095 61.9465C12.1662 61.8955 12.2286 61.7991 12.3079 61.7084C12.9939 60.9431 13.9634 59.7412 14.6493 58.9248L16.3445 56.9179C16.6223 56.5664 16.9171 56.2602 17.1949 55.9144C17.6257 55.3815 18.4931 54.5708 18.4818 53.5106C18.4704 52.3995 17.62 51.7021 17.1778 51.1239C16.9114 50.7724 16.6109 50.4606 16.3275 50.1147L13.7819 47.1043C13.4928 46.7698 13.2263 46.4127 12.9372 46.0952C12.7898 45.9308 12.6481 45.7437 12.512 45.5906C12.4156 45.4829 12.1662 45.1541 12.0755 45.1087C12.3079 45.1541 15.6868 48.0738 16.1234 48.4253L18.1473 50.1147C18.6972 50.5513 19.4796 51.413 20.5511 51.4357C21.5149 51.4527 22.3142 50.744 22.9945 50.1487L25.0128 48.4593C25.7045 47.9094 26.3451 47.3311 27.0367 46.7698L29.055 45.0974C28.936 45.3242 28.4711 45.8061 28.284 46.0442C28.0289 46.3787 27.7454 46.6791 27.4733 47.008C26.929 47.6486 26.3961 48.2892 25.8519 48.9355C25.5684 49.27 25.3133 49.5535 25.0412 49.8936C24.7634 50.2338 24.5026 50.5116 24.2248 50.8517C23.6692 51.5434 23.0342 52.1217 22.7848 52.955C22.3596 54.361 23.6012 55.4269 24.4232 56.4473L26.056 58.3636C26.192 58.528 26.3054 58.6754 26.4585 58.8454L28.3747 61.1245C28.4484 61.1982 28.4371 61.1869 28.5164 61.2379ZM34.1007 45.0464C34.078 44.6835 33.8115 44.3377 33.6245 44.1053C33.0632 43.4136 32.0881 43.0281 31.1697 43.3286C30.9712 43.3909 30.8238 43.4703 30.6311 43.5157C31.2037 42.4385 30.9712 41.452 30.1378 40.6243C29.1854 39.6776 28.1026 39.9837 27.1388 40.4656C26.3281 40.8738 25.1262 41.384 24.2475 41.6051C22.7791 41.9736 22.1725 42.0246 20.5908 42.0246C17.9886 42.0246 16.3615 41.6221 14.0484 40.4656C12.9032 39.893 12.0868 39.7456 11.0437 40.6187C10.301 41.2423 10.0459 42.2684 10.3974 43.1869C10.4484 43.3172 10.5221 43.408 10.5561 43.5554C10.1252 43.3286 9.56399 43.1358 8.90635 43.2776C8.40745 43.3796 7.91989 43.6858 7.61942 44.0089C7.05249 44.6269 6.83706 45.4659 7.13186 46.288C7.56273 47.4785 8.04462 47.8867 8.60588 49.8596C9.17847 51.8835 9.18414 54.9733 8.62288 57.1333C8.46414 57.7399 8.06162 58.7717 7.80084 59.3387C7.43233 60.1324 7.00147 60.722 7.00713 61.6064C7.0128 62.865 8.32808 64.0442 9.79076 63.7834C10.1366 63.721 10.3123 63.5963 10.5958 63.4999C9.98351 64.3617 10.1876 65.7166 11.021 66.4196C12.5971 67.7519 13.6175 66.6917 15.409 65.9774C15.8739 65.7903 16.4012 65.5862 16.9057 65.4615C18.3967 65.0873 18.958 65.0306 20.5511 65.0306C22.5467 65.0306 23.8563 65.2064 25.6875 65.9434L27.1104 66.5784C27.8078 66.9242 28.6185 67.2813 29.4915 66.8732C30.7785 66.2665 31.3114 64.8265 30.6311 63.5396C31.181 63.67 32.0824 64.2369 33.2163 63.3469C33.8342 62.8593 34.3445 61.9522 34.163 61.2265C34.1063 61.0111 34.1744 61.1358 34.0553 61.0451C34.1404 60.824 33.8569 60.3195 33.7605 60.1324C32.9271 58.4656 32.5019 57.3487 32.2241 55.4212C32.1221 54.6955 32.1618 53.7487 32.1618 52.9437C32.1618 50.6987 32.7627 48.9242 33.7208 47.008C33.8682 46.7188 34.0043 46.4467 34.0893 46.1292C34.1404 45.9535 34.2651 45.1428 34.1007 45.0464Z" fill="#EB1B23"/>
<path fill-rule="evenodd" clip-rule="evenodd" d="M69.4147 52.904L70.9851 53.0627C74.8742 53.6013 77.1136 55.5629 77.1136 59.5541C77.1136 60.3875 76.9548 61.3059 76.7167 61.8955C75.3958 65.1497 72.1813 64.6224 69.4147 64.6281C68.8591 64.6281 68.3262 64.5941 67.9463 64.4013C67.4815 64.1689 67.5155 63.7947 67.5155 63.1371C67.5155 62.5758 67.5155 62.0089 67.5155 61.4476C67.5155 60.8694 67.5552 60.3988 67.5552 59.7922C67.5552 59.2309 67.5608 58.664 67.5552 58.1027C67.5552 57.7739 67.6005 57.6208 67.6005 57.2977C67.5892 55.3645 67.6799 53.3916 67.6799 51.4527L67.7196 48.9525C67.7196 48.6747 67.7593 48.4763 67.7593 48.1475C67.7593 46.9966 67.8046 45.9648 67.7989 44.8026C67.7989 44.4794 67.8443 44.3264 67.8386 43.9975C67.8386 43.7197 67.8386 43.4306 67.8386 43.1528C67.8443 42.5065 68.1278 42.3875 68.7684 42.3875C70.0837 42.3875 71.7221 42.2854 72.8786 42.7503C74.5 43.3966 75.2654 44.5588 75.5545 46.322C75.7586 47.5919 75.6849 48.7144 75.0953 49.8426C74.8232 50.3698 74.398 50.8517 73.9274 51.2146C72.958 51.9516 71.7845 52.3768 70.5656 52.5638C69.6074 52.7112 69.4204 52.5525 69.4147 52.904ZM61.3926 41.6618C61.3926 41.8149 61.5627 41.7922 61.7101 41.8205C62.7703 42.053 63.0027 43.0111 63.0027 44.0769C63.0027 45.9988 63.0027 47.9207 63.0027 49.8426C63.0027 53.4142 62.9404 57.0086 62.963 60.6029C62.963 60.892 62.9177 61.0054 62.9234 61.2832C62.929 62.7175 63.1955 64.6168 61.7271 65.127C61.506 65.2064 61.3756 65.2234 61.1489 65.2744V65.5579H75.3788C76.3199 65.5579 77.3347 65.3254 78.032 65.0646C78.9901 64.7131 79.3076 64.4353 80.0219 63.8684C80.4755 63.5112 81.0651 62.5475 81.2862 61.9919C81.9495 60.3591 81.9722 58.3635 81.1955 56.7591C80.2827 54.8542 78.7804 53.8508 76.9095 53.1024C76.6884 53.0174 75.923 52.7509 75.6623 52.7453V52.6602C75.7983 52.6319 75.9287 52.5468 76.0874 52.4845C76.8868 52.1557 78.0604 51.2883 78.6726 50.676C78.803 50.5512 78.8427 50.4832 78.9561 50.3585L79.4947 49.6442C79.7838 49.1566 79.9199 48.9015 80.0786 48.3345C80.5378 46.7245 80.1183 44.6098 79.0355 43.4419C78.2815 42.6256 77.3063 42.1097 76.2122 41.8375C75.4128 41.6448 74.5341 41.5031 73.5646 41.5031H61.3926V41.6618Z" fill="black"/>
<path fill-rule="evenodd" clip-rule="evenodd" d="M47.4405 64.6678C46.5334 64.6678 44.7873 64.7301 44.3167 64.0442C43.9482 63.4999 44.192 61.3342 44.0786 60.5746C43.9766 59.9169 44.0956 48.7768 44.0956 47.2631C44.0956 46.6281 44.124 43.7254 44.2034 43.1812C44.3224 42.3591 44.5208 42.4271 45.5073 42.4271C49.816 42.4271 52.7583 43.3909 54.6859 47.2347C55.3889 48.6464 55.695 50.0297 55.9558 51.566C56.1599 52.7793 56.1882 53.8451 56.1882 55.081C56.1882 57.5018 55.4059 60.1494 53.9942 62.0316C53.3593 62.882 52.5259 63.67 51.409 64.0385C50.2412 64.424 48.9712 64.6678 47.4405 64.6678ZM37.9274 41.7808C38.5964 41.8375 39.2427 42.3138 39.4411 43.0054C39.5319 43.3059 39.5829 44.4964 39.5772 44.9273C39.5772 45.1994 39.6226 45.2958 39.6226 45.5679C39.6169 46.4977 39.6623 47.3197 39.6623 48.2722C39.6623 48.7484 39.7019 49.0999 39.7019 49.5988L39.5999 62.2697C39.5489 62.6042 39.5659 63.069 39.5375 63.4149C39.5148 63.7437 39.4922 64.2142 39.3391 64.4297C39.186 64.6508 38.9309 64.8322 38.6758 64.9739C38.4887 65.076 38.0068 65.2517 37.7687 65.2744V65.5579H50.706C51.5678 65.5579 52.4578 65.3594 53.1212 65.1497C53.45 65.042 53.8355 64.9116 54.1473 64.7642C54.4931 64.5941 54.7936 64.4637 55.1111 64.2766C55.5703 63.9931 55.9445 63.772 56.3583 63.4319C57.7189 62.3094 58.7621 61.1075 59.5501 59.5257C60.1227 58.3749 60.5706 56.9859 60.7577 55.6933C60.8087 55.3361 60.8824 54.8372 60.9051 54.4347C60.9164 54.2079 60.8881 53.9415 60.9108 53.7147C60.9504 53.4029 60.8654 51.9799 60.8314 51.7305C60.5309 49.338 59.8676 47.5352 58.3879 45.67C57.3675 44.3774 55.8197 43.2549 54.3344 42.5859C53.6597 42.2854 53.0191 42.0473 52.2141 41.8489C51.4941 41.6675 50.57 41.5031 49.6969 41.5031H37.9274V41.7808Z" fill="black"/>
<path fill-rule="evenodd" clip-rule="evenodd" d="M82.5958 48.1078C82.5958 49.3664 83.055 50.5626 83.724 51.4527C84.3589 52.2974 85.2037 53.0231 86.1561 53.4936C87.3467 54.0889 88.18 54.3497 89.4443 54.7239C90.7936 55.1207 92.9593 55.5006 93.9627 56.2092C94.2065 56.3793 94.558 56.6968 94.7281 56.9349C95.4084 57.8873 95.4934 58.5506 95.4934 59.7525C95.4934 60.4782 95.2156 61.408 94.9719 61.8898C94.66 62.5078 94.3199 63.001 93.7983 63.4149C93.3674 63.755 93.4525 63.6813 93.0046 63.9535C92.0011 64.5601 90.5328 64.7075 89.2856 64.7075C87.2446 64.7075 85.884 64.1349 84.5347 63.1314C83.6049 62.4454 83.4065 61.9522 83.1174 60.722C82.9416 60.7163 82.9926 60.6936 82.8339 60.6823C82.8339 61.476 82.8623 62.3094 82.8396 63.0974L82.7942 64.2653C82.7942 64.6395 82.7148 65.3538 82.9189 65.3538C83.3838 65.3538 83.0493 64.7925 83.8827 64.7925L85.3114 65.1383C86.2298 65.3651 87.3297 65.5522 88.2991 65.6939C90.272 65.9774 92.9423 65.8754 94.7337 65.3198C98.4188 64.1802 100.171 61.9239 100.171 58.1028C100.171 54.5028 97.8519 52.4221 94.6317 51.5094C93.1407 51.0898 91.3662 50.8404 89.8638 50.2338C88.815 49.8143 87.8059 49.253 87.4147 48.1248C86.7911 46.3333 87.4657 44.332 88.9624 43.2719C91.5363 41.4577 97.1432 42.121 98.2941 45.5169C98.4131 45.8741 98.3111 45.8911 98.6796 45.8911C98.6796 45.1087 98.6399 44.4171 98.6399 43.6744C98.6399 43.3172 98.6569 42.9034 98.6399 42.5462C98.6286 42.3535 98.5945 42.2741 98.6002 42.0246C98.6002 41.8943 98.6456 41.5428 98.5208 41.5428C98.2827 41.5428 98.26 41.7128 98.0616 41.8092C97.4947 42.104 96.7293 41.8432 96.2248 41.7412C95.6295 41.6221 94.3823 41.4067 93.7643 41.3783C93.0443 41.35 92.6474 41.2593 91.7857 41.2593C91.5136 41.2593 91.3492 41.2366 91.1394 41.2196L89.8128 41.299C89.1892 41.3273 88.0383 41.5598 87.4374 41.7468C85.9577 42.2174 84.9032 42.841 84.0131 43.9295C83.1287 45.0067 82.5958 46.6281 82.5958 48.1078Z" fill="black"/>
<path fill-rule="evenodd" clip-rule="evenodd" d="M28.5164 61.2379C28.437 61.1869 28.4484 61.1982 28.3747 61.1245L26.4585 58.8454C26.3054 58.6754 26.192 58.528 26.0559 58.3636L24.4232 56.4473C23.6011 55.4269 22.3596 54.361 22.7848 52.9551C23.0342 52.1217 23.6692 51.5434 24.2248 50.8517C24.5026 50.5116 24.7633 50.2338 25.0411 49.8936C25.3133 49.5535 25.5684 49.27 25.8518 48.9355C26.3961 48.2892 26.929 47.6486 27.4733 47.008C27.7454 46.6791 28.0289 46.3787 28.284 46.0442C28.4711 45.8061 28.9359 45.3242 29.055 45.0974L27.0367 46.7699C26.3451 47.3311 25.7044 47.9094 25.0128 48.4593L22.9945 50.1488C22.3142 50.744 21.5148 51.4527 20.5511 51.4357C19.4796 51.413 18.6972 50.5513 18.1473 50.1147L16.1233 48.4253C15.6868 48.0738 12.3079 45.1541 12.0755 45.1088C12.1662 45.1541 12.4156 45.4829 12.512 45.5906C12.6481 45.7437 12.7898 45.9308 12.9372 46.0952C13.2263 46.4127 13.4928 46.7699 13.7819 47.1043L16.3274 50.1147C16.6109 50.4606 16.9114 50.7724 17.1778 51.1239C17.62 51.7021 18.4704 52.3995 18.4818 53.5106C18.4931 54.5708 17.6257 55.3815 17.1948 55.9144C16.917 56.2602 16.6222 56.5664 16.3444 56.9179L14.6493 58.9248C13.9633 59.7412 12.9939 60.9431 12.3079 61.7084C12.2285 61.7991 12.1662 61.8955 12.1095 61.9466C12.2399 61.9069 17.6257 57.3601 18.1473 56.9462C19.2698 56.0448 20.2052 54.996 21.9627 56.0902C22.3596 56.334 27.8191 60.9374 28.5561 61.5497C28.7205 61.6914 28.8849 61.8502 29.055 61.9579C28.8793 61.6517 28.5561 61.4193 28.5164 61.2379Z" fill="#FEFEFE"/>
</svg>
