<svg width="108" height="107" viewBox="0 0 108 107" fill="none" xmlns="http://www.w3.org/2000/svg">
<rect width="108" height="108" rx="8" fill="white"/>
<path fill-rule="evenodd" clip-rule="evenodd" d="M72.8989 41.8963C71.3589 42.8174 67.7265 44.9693 66.3705 45.7706C65.5441 46.2055 63.6301 46.3954 62.5475 44.8876C62.5281 44.8604 61.1077 43.0271 61.0497 42.9581C61.009 42.9093 60.0907 41.5024 58.0445 41.4584C57.7421 41.451 56.239 41.4427 54.7724 42.3037C52.8229 43.4541 48.2891 46.1315 48.2891 46.1315C48.2891 46.1315 48.2878 46.1339 48.2855 46.1339C46.4218 47.2353 44.9697 48.0928 44.9697 48.0928L46.6854 50.2693C47.4879 51.2986 49.2978 52.095 50.8674 51.1643C50.8674 51.1643 56.6668 47.6954 56.6881 47.6854C59.1962 46.2645 61.1315 46.2645 62.416 46.7932C63.569 47.2965 64.572 48.5503 64.572 48.5503C64.572 48.5503 65.8829 50.2284 66.1142 50.5219C66.86 51.4702 68.0946 51.0977 68.0946 51.0977C68.0946 51.0977 68.5521 51.0441 69.2417 50.6212C69.2417 50.6212 74.8591 47.2568 74.8627 47.2558C76.6464 46.1748 78.2824 45.9729 79.1185 46.0524C81.7373 46.2983 82.5508 48.188 83.6863 49.5063C84.355 50.2817 84.9584 50.722 85.8811 50.6998C86.4874 50.6865 87.1724 50.3068 87.2734 50.2382L94.0002 46.2284C94.0002 46.2284 93.3099 45.1546 91.8964 43.484C90.6313 41.9934 89.2875 42.6678 88.2162 43.2159C87.7661 43.4459 86.1352 44.5664 84.5195 45.3482C83.3682 45.905 81.7145 45.7375 80.8082 44.5808C80.754 44.5105 79.2878 42.677 79.1337 42.4514C78.5419 41.6857 77.3873 41 75.9075 41C75.0078 41 73.9868 41.2535 72.8989 41.8963Z" fill="url(#paint0_linear_3_4586)"/>
<path fill-rule="evenodd" clip-rule="evenodd" d="M14.0843 57.5732C14.0843 56.376 14.0632 55.3713 14 54.4754H16.1942L16.2971 56.0145H16.3586C16.856 55.2012 17.7654 54.2394 19.4619 54.2394C20.786 54.2394 21.8203 55.0104 22.254 56.1639H22.2965C22.6488 55.5871 23.0612 55.16 23.5366 54.8597C24.0957 54.4543 24.7372 54.2394 25.5647 54.2394C27.2398 54.2394 28.935 55.4144 28.935 58.7483V64.8801H26.453V59.1335C26.453 57.4029 25.8748 56.376 24.655 56.376C23.7847 56.376 23.1428 57.0182 22.8757 57.7664C22.8128 58.022 22.7509 58.3428 22.7509 58.6398V64.8801H20.2681V58.8547C20.2681 57.4029 19.7104 56.376 18.5311 56.376C17.5795 56.376 16.939 57.1464 16.7109 57.8713C16.6068 58.1294 16.565 58.4277 16.565 58.7263V64.8801H14.0843V57.5732Z" fill="#003A70"/>
<path fill-rule="evenodd" clip-rule="evenodd" d="M38.6052 62.3809C38.6052 63.3205 38.6465 64.2377 38.75 64.8806H36.4532L36.2883 63.7271H36.2255C35.6053 64.5398 34.5503 65.1157 33.2473 65.1157C31.2196 65.1157 30.0825 63.5999 30.0825 62.0179C30.0825 59.3889 32.3363 58.0654 36.06 58.0865V57.9149C36.06 57.2309 35.7908 56.0993 34.0121 56.0993C33.0187 56.0993 31.984 56.42 31.3018 56.8679L30.8047 55.1601C31.5508 54.6891 32.8551 54.2398 34.4466 54.2398C37.6749 54.2398 38.6052 56.3564 38.6052 58.6202V62.3809ZM36.122 59.7959C34.3227 59.7528 32.6062 60.1587 32.6062 61.7401C32.6062 62.7646 33.2473 63.2356 34.0543 63.2356C35.0666 63.2356 35.8125 62.5516 36.0393 61.8041C36.1009 61.6118 36.122 61.3973 36.122 61.227V59.7959Z" fill="#003A70"/>
<path fill-rule="evenodd" clip-rule="evenodd" d="M40.3642 57.5732C40.3642 56.376 40.3415 55.3713 40.2812 54.4754H42.5133L42.6381 56.035H42.6993C43.1342 55.2241 44.2304 54.2394 45.9056 54.2394C47.6645 54.2394 49.4847 55.4144 49.4847 58.7056V64.8801H46.9407V59.0054C46.9407 57.5088 46.4029 56.376 45.0168 56.376C44.0032 56.376 43.3001 57.124 43.0305 57.9149C42.9491 58.1505 42.9276 58.4717 42.9276 58.7687V64.8801H40.3642V57.5732Z" fill="#003A70"/>
<path fill-rule="evenodd" clip-rule="evenodd" d="M60.5156 50.2947V61.9524C60.5156 63.0205 60.5563 64.1763 60.5978 64.8806H58.3223L58.2204 63.2356H58.1783C57.5781 64.39 56.3557 65.1158 54.8887 65.1158C52.4902 65.1158 50.5865 63.0009 50.5865 59.7959C50.5654 56.3129 52.6753 54.2398 55.0953 54.2398C56.4808 54.2398 57.4746 54.8389 57.9289 55.6087H57.9708V50.2947H60.5156ZM57.9708 58.8115C57.9708 58.6 57.9495 58.3424 57.9097 58.1294C57.6818 57.1038 56.8746 56.27 55.7161 56.27C54.0821 56.27 53.1718 57.7664 53.1718 59.7108C53.1718 61.6118 54.0821 63.0009 55.6955 63.0009C56.7293 63.0009 57.6401 62.2747 57.888 61.1426C57.9495 60.9065 57.9708 60.6504 57.9708 60.3717V58.8115Z" fill="#003A70"/>
<path fill-rule="evenodd" clip-rule="evenodd" d="M62.3134 64.88H64.8809V54.476H62.3134V64.88Z" fill="#003A70"/>
<path fill-rule="evenodd" clip-rule="evenodd" d="M66.679 57.8295C66.679 56.4199 66.6575 55.4143 66.5957 54.4751H68.8095L68.8904 56.4615H68.9762C69.4719 54.9873 70.6512 54.4751 71.7264 54.4751C71.9741 54.4751 72.1187 54.4314 72.3262 54.4751V56.7834C72.1187 56.7407 71.8917 56.698 71.5813 56.698C70.3611 56.698 69.533 57.5092 69.3058 58.6835C69.2655 58.9187 69.2238 59.1977 69.2238 59.4982V64.8805H66.679V57.8295Z" fill="#003A70"/>
<path fill-rule="evenodd" clip-rule="evenodd" d="M73.5053 64.88H76.069V54.476H73.5053V64.88Z" fill="#003A70"/>
<defs>
<linearGradient id="paint0_linear_3_4586" x1="14" y1="65.1158" x2="94.0002" y2="65.1158" gradientUnits="userSpaceOnUse">
<stop stop-color="#FFCA06"/>
<stop offset="0.330844" stop-color="#FBAA18"/>
<stop offset="0.694742" stop-color="#FFC907"/>
<stop offset="1" stop-color="#FAA619"/>
</linearGradient>
</defs>
</svg>
