<svg width="108" height="108" viewBox="0 0 108 108" fill="none" xmlns="http://www.w3.org/2000/svg">
<rect x="-0.00012207" width="108" height="108" rx="8" fill="white"/>
<g clip-path="url(#clip0_3_4586)">
<mask id="mask0_3_4586" style="mask-type:luminance" maskUnits="userSpaceOnUse" x="-497" y="-16" width="734" height="532">
<path d="M-496.622 -15.8555H236.568V515.743H-496.622V-15.8555Z" fill="white"/>
</mask>
<g mask="url(#mask0_3_4586)">
<path d="M55.947 47.5749C55.7303 48.065 55.4303 48.4547 55.0469 48.7442C54.6628 49.0346 54.2181 49.1793 53.711 49.1793C53.166 49.1793 52.6864 49.0054 52.2724 48.6577C51.8575 48.3092 51.5575 47.8458 51.3723 47.2652V44.5594C51.5575 43.9666 51.8575 43.5024 52.2724 43.1668C52.6864 42.832 53.166 42.6646 53.711 42.6646C54.2181 42.6646 54.6628 42.8062 55.0469 43.09C55.4303 43.3738 55.7303 43.7604 55.947 44.2496C56.1629 44.7397 56.2721 45.2936 56.2721 45.9123C56.2721 46.5309 56.1629 47.0857 55.947 47.5749ZM56.7824 41.0602C56.0958 40.5702 55.3001 40.3251 54.3976 40.3251C53.7781 40.3251 53.2096 40.4448 52.6897 40.6834C52.1705 40.9219 51.7306 41.2406 51.3723 41.64V36.9999H48.6625V51.2867H51.2793L51.3351 50.1457C51.6934 50.5589 52.1357 50.8905 52.6622 51.142C53.1878 51.3926 53.766 51.5188 54.3976 51.5188C55.3001 51.5188 56.0958 51.2705 56.7824 50.774C57.4689 50.2783 58.0099 49.6047 58.4062 48.7539C58.8016 47.9032 58.9997 46.9563 58.9997 45.9123C58.9997 44.8683 58.8016 43.9213 58.4062 43.0706C58.0099 42.2199 57.4689 41.5503 56.7824 41.0602Z" fill="#1751EC"/>
<path d="M66.4399 48.7544C66.0566 49.0383 65.6166 49.1798 65.1225 49.1798C64.6268 49.1798 64.1853 49.035 63.7955 48.7447C63.4057 48.4544 63.1025 48.0654 62.8857 47.5754C62.669 47.0853 62.5615 46.5314 62.5615 45.9128C62.5615 45.2941 62.669 44.7402 62.8857 44.2501C63.1025 43.7601 63.4057 43.3703 63.7955 43.0808C64.1853 42.7905 64.6268 42.6457 65.1225 42.6457C65.6166 42.6457 66.0566 42.7872 66.4399 43.0711C66.8232 43.3541 67.1232 43.7407 67.3399 44.2307C67.3771 44.3156 67.4111 44.4022 67.4418 44.4903V47.3344C67.4111 47.4234 67.3771 47.5099 67.3399 47.5948C67.1232 48.0849 66.8232 48.4714 66.4399 48.7544ZM67.4831 41.6567C67.1434 41.2718 66.7399 40.9604 66.2733 40.7219C65.7282 40.4453 65.1161 40.3062 64.4352 40.3062C63.5448 40.3062 62.7531 40.5545 62.0601 41.051C61.3671 41.5467 60.8228 42.2204 60.4266 43.0711C60.0311 43.9218 59.833 44.8688 59.833 45.9128C59.833 46.9568 60.0311 47.9037 60.4266 48.7544C60.8228 49.6052 61.3671 50.2788 62.0601 50.7745C62.7531 51.271 63.5448 51.5193 64.4352 51.5193C65.1161 51.5193 65.7282 51.3802 66.2733 51.1036C66.7399 50.8659 67.1434 50.5513 67.4831 50.1615L67.5348 51.2872H70.1703V40.5383H67.5348L67.4831 41.6567Z" fill="#1751EC"/>
<path d="M80.1606 40.8475C79.5743 40.4997 78.8683 40.3251 78.0435 40.3251C77.2963 40.3251 76.5709 40.5159 75.8689 40.896C75.446 41.1248 75.0643 41.4418 74.7231 41.8462L74.6608 40.5571H71.9153V51.2866H74.757V44.78C75.1395 44.0999 75.5261 43.6002 75.9175 43.2832C76.3938 42.8966 76.9154 42.7034 77.4831 42.7034C77.9861 42.7034 78.388 42.8805 78.6912 43.2347C78.9937 43.5897 79.1457 44.0563 79.1457 44.6361V51.2866H81.9874V44.4622C81.9874 43.6382 81.8297 42.916 81.5135 42.2974C81.1981 41.6788 80.7469 41.1952 80.1606 40.8475Z" fill="#1751EC"/>
<path d="M86.422 47.8069L87.9399 46.3165L90.6942 51.2866H94.0001L89.9963 44.2981L93.8068 40.5571H90.192L88.2973 42.4713L86.2481 44.8876L86.422 41.7176V37.0006H83.5803V51.2866H86.422V47.8069Z" fill="#1751EC"/>
<path d="M57.3858 61.0366C56.9726 60.8045 56.5198 60.6209 56.0257 60.4859C55.5316 60.35 55.0383 60.2441 54.5442 60.1664C54.0501 60.0896 53.5964 60.0023 53.184 59.9052C52.7716 59.809 52.44 59.6837 52.1893 59.5284C51.9386 59.3739 51.8141 59.1548 51.8141 58.8718C51.8141 58.5111 51.9693 58.237 52.2807 58.0501C52.592 57.8633 53.0247 57.7695 53.5802 57.7695C54.2158 57.7695 54.7334 57.9022 55.1329 58.1658C55.5316 58.4302 55.745 58.8071 55.7717 59.2963H58.5325C58.4379 58.1626 57.9438 57.2795 57.0511 56.6479C56.1575 56.0171 54.9938 55.701 53.5592 55.701C52.6122 55.701 51.7834 55.8392 51.0733 56.1166C50.3625 56.394 49.8078 56.7805 49.4083 57.2762C49.0096 57.7728 48.8099 58.3558 48.8099 59.0262C48.8099 59.619 48.9344 60.109 49.1851 60.4956C49.4358 60.8821 49.7673 61.191 50.1798 61.4231C50.5922 61.6552 51.0458 61.842 51.5399 61.9835C52.034 62.1259 52.5273 62.2447 53.0214 62.3418C53.5155 62.438 53.9684 62.5383 54.3816 62.641C54.794 62.7445 55.1256 62.8828 55.3763 63.0566C55.6262 63.2305 55.7515 63.4602 55.7515 63.7432C55.7515 64.078 55.576 64.3424 55.2243 64.5357C54.8717 64.729 54.4051 64.826 53.8236 64.826C53.0522 64.826 52.4432 64.6489 51.9968 64.2939C51.5505 63.9397 51.3402 63.4464 51.3677 62.8149H48.5867C48.5996 63.6526 48.8228 64.378 49.2563 64.9902C49.6897 65.6023 50.3019 66.0722 51.0936 66.4013C51.8852 66.7296 52.8015 66.8938 53.8439 66.8938C55.3456 66.8938 56.54 66.5881 57.4263 65.976C58.3126 65.3638 58.7557 64.5228 58.7557 63.4529C58.7557 62.8343 58.6304 62.3353 58.3805 61.9552C58.1298 61.5752 57.7983 61.2687 57.3858 61.0366Z" fill="#1751EC"/>
<path d="M66.3649 64.1299C65.9815 64.4138 65.5416 64.5553 65.0475 64.5553C64.5526 64.5553 64.1103 64.4105 63.7205 64.1202C63.3307 63.8299 63.0275 63.4409 62.8107 62.9509C62.594 62.4608 62.4865 61.9069 62.4865 61.2882C62.4865 60.6696 62.594 60.1157 62.8107 59.6256C63.0275 59.1356 63.3307 58.7458 63.7205 58.4563C64.1103 58.166 64.5526 58.0212 65.0475 58.0212C65.5416 58.0212 65.9815 58.1627 66.3649 58.4466C66.7482 58.7296 67.0482 59.1161 67.2649 59.6062C67.3021 59.6911 67.3361 59.7776 67.3668 59.8666V62.7099C67.3361 62.7988 67.3021 62.8854 67.2649 62.9703C67.0482 63.4603 66.7482 63.8469 66.3649 64.1299ZM67.408 57.0322C67.0684 56.6473 66.6649 56.3359 66.1983 56.0974C65.6532 55.8208 65.0411 55.6817 64.361 55.6817C63.4698 55.6817 62.6781 55.93 61.9851 56.4265C61.292 56.9222 60.7478 57.5958 60.3524 58.4466C59.9561 59.2973 59.758 60.2442 59.758 61.2882C59.758 62.3322 59.9561 63.2792 60.3524 64.1299C60.7478 64.9806 61.292 65.6543 61.9851 66.15C62.6781 66.6465 63.4698 66.8948 64.361 66.8948C65.0411 66.8948 65.6532 66.7557 66.1983 66.4791C66.6649 66.2414 67.0684 65.9268 67.408 65.537L67.4598 66.6627H70.0953V55.9138H67.4598L67.408 57.0322Z" fill="#1751EC"/>
<path d="M79.161 62.6993C78.975 63.2662 78.6717 63.7174 78.2512 64.0522C77.8307 64.3878 77.3544 64.5552 76.8223 64.5552C76.3274 64.5552 75.8883 64.4105 75.505 64.1201C75.1208 63.8298 74.8184 63.4409 74.5952 62.9508C74.3728 62.4607 74.2612 61.9068 74.2612 61.2882C74.2612 60.6695 74.3728 60.1156 74.5952 59.6255C74.8184 59.1355 75.1208 58.7489 75.505 58.4659C75.8883 58.1821 76.3274 58.0405 76.8223 58.0405C77.3544 58.0405 77.8307 58.2047 78.2512 58.533C78.6717 58.8622 78.975 59.3102 79.161 59.877V62.6993ZM79.1982 57.0354C78.8391 56.6229 78.4 56.297 77.8808 56.0585C77.3609 55.8207 76.7786 55.701 76.1357 55.701C75.2454 55.701 74.4529 55.9461 73.7607 56.4353C73.0676 56.9254 72.5234 57.5958 72.1271 58.4465C71.7309 59.2972 71.5336 60.2442 71.5336 61.2882C71.5336 62.3322 71.7309 63.2791 72.1271 64.1298C72.5234 64.9806 73.0676 65.6542 73.7607 66.1499C74.4529 66.6464 75.2454 66.8939 76.1357 66.8939C76.7544 66.8939 77.3237 66.775 77.8428 66.5365C78.3628 66.2987 78.8019 65.9793 79.161 65.5798V70.1035H81.8886V55.9331H79.254L79.1982 57.0354Z" fill="#1751EC"/>
<path d="M90.7502 62.4393C90.3677 63.1202 89.9812 63.6192 89.5906 63.9362C89.1135 64.3235 88.5919 64.516 88.0242 64.516C87.522 64.516 87.1193 64.3397 86.816 63.9847C86.5128 63.6305 86.3616 63.1631 86.3616 62.5833V55.9327H83.5199V62.7571C83.5199 63.582 83.6776 64.3041 83.9938 64.9219C84.3092 65.5406 84.7604 66.0242 85.3467 66.3719C85.933 66.7204 86.6389 66.8943 87.4638 66.8943C88.211 66.8943 88.9364 66.7034 89.6383 66.3242C90.0613 66.0953 90.4429 65.7783 90.7842 65.374L90.8465 66.6622H93.5919V55.9327H90.7502V62.4393Z" fill="#1751EC"/>
</g>
<path d="M29.5896 37.0009C26.8045 37.0009 24.5467 39.2587 24.5467 42.0438C24.5467 44.9315 26.887 47.2726 29.7748 47.2726H38.2909C38.6782 47.2726 38.9929 46.9589 38.9929 46.5707V37.7028C38.9929 37.3155 38.6782 37.0009 38.2909 37.0009H29.5896ZM14 45.6052V45.606C14 50.3392 17.8727 54.2119 22.6051 54.2119C22.8056 54.2119 22.9674 54.0493 22.9674 53.8496V37.3624C22.9674 37.1626 22.8056 37.0009 22.6051 37.0009C17.8727 37.0009 14 40.8728 14 45.6052ZM31.9752 49.8151V66.3015C31.9752 66.5013 32.1377 66.6638 32.3374 66.6638C37.0706 66.6638 40.9434 62.7911 40.9434 58.0579C40.9434 53.3256 37.0706 49.4528 32.3374 49.4528C32.1377 49.4528 31.9752 49.6154 31.9752 49.8151ZM16.6516 56.3912C16.2643 56.3912 15.9497 56.7058 15.9497 57.094V65.9619C15.9497 66.3493 16.2643 66.6638 16.6516 66.6638H25.3538C28.1388 66.6638 30.3967 64.4052 30.3967 61.6209C30.3967 58.7331 28.0555 56.3912 25.1678 56.3912H16.6516Z" fill="url(#paint0_linear_3_4586)"/>
</g>
<defs>
<linearGradient id="paint0_linear_3_4586" x1="15.5925" y1="65.989" x2="39.3505" y2="37.6753" gradientUnits="userSpaceOnUse">
<stop stop-color="#FF5564"/>
<stop offset="0.128864" stop-color="#FF5564"/>
<stop offset="0.382729" stop-color="#FF5564"/>
<stop offset="1" stop-color="#FFC700"/>
</linearGradient>
<clipPath id="clip0_3_4586">
<rect width="80" height="33.1034" fill="white" transform="translate(14 37)"/>
</clipPath>
</defs>
</svg>
